<?xml version="1.0" encoding="UTF-8" standalone="no"?>
<svg
   viewBox="0 0 16 16"
   version="1.1"
   xmlns="http://www.w3.org/2000/svg"
   xmlns:svg="http://www.w3.org/2000/svg">
  <path
     fill="#f96c14"
     d="M 7.2711197,0.67177558 C 6.2578116,0.84948502 6.5232218,1.3941689 6.2978564,2.1122483 6.0516317,3.2955766 5.5930656,5.2712498 5.4896158,6.4751956 5.2165684,7.4349041 6.0123819,8.234772 6.9802441,8.0149979 7.8806303,8.0094317 8.9756755,7.5348957 9.4958478,8.879455 9.811666,9.8904108 9.887663,10.971272 9.4432823,11.950275 9.1792548,12.757278 8.6022211,13.42485 7.7702434,13.738277 6.9305251,14.009585 5.8955334,14.011734 5.2800074,13.302251 4.6144863,12.531798 4.3517513,11.477932 4.2093884,10.496599 4.0679059,9.7464459 4.1241876,8.96975 3.9442421,8.1794758 3.6513278,7.1973753 2.9710791,6.3474607 1.9752101,6.0448584 1.3078822,5.7369256 -0.29078153,6.0616668 0.43497629,6.8852221 1.2343912,7.7497912 1.9724938,8.9830907 2.2278409,10.133452 c 0.1803983,1.149915 0.1585803,2.29029 1.1263469,3.315501 0.7355477,0.779289 1.5251897,1.550436 2.653913,1.71644 0.8466342,0.166135 1.7342407,0.139053 2.5362766,-0.192743 1.035434,-0.346538 1.8155776,-1.209124 2.4078976,-2.091759 0.483488,-0.708817 0.914228,-1.492324 1.573258,-2.051328 0.776606,-0.509253 1.618809,-0.719474 2.508958,-1.1536588 C 16.139535,9.3110485 15.916099,7.6412953 14.69795,8.1486741 13.759853,8.5060497 12.878268,9.0716385 11.878206,9.2193963 11.1287,9.2951789 11.150737,8.5100186 11.576639,8.1379744 12.359601,7.4845494 13.027125,6.7174083 13.867089,6.1249203 14.533866,5.5713362 15.156547,4.436762 14.049486,4.151333 13.144012,4.466969 12.508,5.3095013 11.721817,5.881542 11.513463,6.0705011 11.083264,6.4283281 10.766983,6.7321297 10.415539,7.0697047 10.172385,7.3276299 9.844029,6.9384495 9.927559,6.0080715 10.569651,5.3183478 10.985127,4.4586456 11.385543,3.8089646 11.91263,3.0079744 11.954406,2.2388784 11.728964,1.1951014 10.587276,1.6657064 10.165514,2.3857894 9.7020872,3.1414217 9.4095174,4.0108212 8.8829527,4.7390464 8.7307604,5.2627723 7.7807029,6.2719289 7.6841355,5.2892988 7.6790577,4.1522245 7.8333984,2.8225162 7.9773627,1.6996957 7.9634083,1.2155467 7.9470713,0.65297987 7.2711197,0.67177558 z" />
</svg>
